<?xml version="1.0" standalone="no"?><!DOCTYPE svg PUBLIC "-//W3C//DTD SVG 1.1//EN" "http://www.w3.org/Graphics/SVG/1.1/DTD/svg11.dtd"><svg style="width: 850px; height: 780px;" version="1.1" xmlns="http://www.w3.org/2000/svg" xmlns:xlink="http://www.w3.org/1999/xlink"><defs xmlns="http://www.w3.org/1999/xhtml"><style type="text/css"><![CDATA[
body { font-family: "Source Sans Pro", "Trebuchet MS", "Lucida Grande", "Helvetica Neue", sans-serif; text-rendering: optimizeLegibility; font-size: 14px; letter-spacing: 0.2px; }
#app { position: absolute; top: 0px; left: 0px; bottom: 0px; right: 0px; }
.stroke { pointer-events: none; }]]></style></defs><g class="strokes"><path d="M 220.0 220.0 L 220.0 265.3589838486225 " stroke="black" fill="transparent" class="stroke"/><path d="M 220.0 265.3589838486225 A 39.999999999999986 39.999999999999986 0 0 1 240.0 300.0 " stroke="black" fill="transparent" class="stroke"/><path d="M 220.0 265.3589838486225 L 220.0 334.6410161513775 " stroke="black" fill="transparent" class="stroke"/><path d="M 220.0 265.3589838486225 A 39.999999999999986 39.999999999999986 0 0 0 220.0 334.6410161513775 " stroke="black" fill="transparent" class="stroke"/><path d="M 220.0 265.3589838486225 A 39.999999999999986 39.999999999999986 0 1 0 220.0 334.6410161513775 " stroke="black" fill="transparent" class="stroke"/><path d="M 220.0 265.3589838486225 A 39.999999999999986 39.999999999999986 0 0 1 260.0 265.3589838486225 " stroke="black" fill="transparent" class="stroke"/><path d="M 220.0 334.6410161513775 A 39.999999999999986 39.999999999999986 0 0 0 260.0 334.6410161513775 " stroke="black" fill="transparent" class="stroke"/><path d="M 220.0 334.6410161513775 L 220.0 340.0 " stroke="black" fill="transparent" class="stroke"/><path d="M 220.0 334.6410161513775 A 39.999999999999986 39.999999999999986 0 0 0 240.0 300.0 " stroke="black" fill="transparent" class="stroke"/><path d="M 260.0 265.3589838486225 A 39.999999999999986 39.999999999999986 0 0 1 280.0 300.0 " stroke="black" fill="transparent" class="stroke"/><path d="M 260.0 265.3589838486225 A 39.999999999999986 39.999999999999986 0 0 0 260.0 334.6410161513775 " stroke="black" fill="transparent" class="stroke"/><path d="M 260.0 265.3589838486225 A 39.999999999999986 39.999999999999986 0 0 1 300.0 265.3589838486225 " stroke="black" fill="transparent" class="stroke"/><path d="M 260.0 334.6410161513775 A 39.999999999999986 39.999999999999986 0 0 0 300.0 334.6410161513775 " stroke="black" fill="transparent" class="stroke"/><path d="M 260.0 334.6410161513775 A 39.999999999999986 39.999999999999986 0 0 0 280.0 300.0 " stroke="black" fill="transparent" class="stroke"/><path d="M 300.0 265.3589838486225 A 39.999999999999986 39.999999999999986 0 0 1 320.0 300.0 " stroke="black" fill="transparent" class="stroke"/><path d="M 300.0 265.3589838486225 A 39.999999999999986 39.999999999999986 0 0 0 300.0 334.6410161513775 " stroke="black" fill="transparent" class="stroke"/><path d="M 300.0 265.3589838486225 A 39.999999999999986 39.999999999999986 0 0 1 340.0 265.3589838486225 " stroke="black" fill="transparent" class="stroke"/><path d="M 300.0 334.6410161513775 A 39.999999999999986 39.999999999999986 0 0 0 340.0 334.6410161513775 " stroke="black" fill="transparent" class="stroke"/><path d="M 300.0 334.6410161513775 A 39.999999999999986 39.999999999999986 0 0 0 320.0 300.0 " stroke="black" fill="transparent" class="stroke"/><path d="M 340.0 220.0 L 340.0 265.3589838486225 " stroke="black" fill="transparent" class="stroke"/><path d="M 340.0 265.3589838486225 A 39.999999999999986 39.999999999999986 0 0 1 360.0 300.0 " stroke="black" fill="transparent" class="stroke"/><path d="M 340.0 265.3589838486225 L 340.0 334.6410161513775 " stroke="black" fill="transparent" class="stroke"/><path d="M 340.0 334.6410161513775 L 340.0 340.0 " stroke="black" fill="transparent" class="stroke"/><path d="M 340.0 334.6410161513775 A 39.999999999999986 39.999999999999986 0 0 0 360.0 300.0 " stroke="black" fill="transparent" class="stroke"/><path d="M 360.0 220.0 L 360.0 300.0 " stroke="black" fill="transparent" class="stroke"/><path d="M 360.0 300.0 L 400.0 300.0 " stroke="black" fill="transparent" class="stroke"/><path d="M 360.0 300.0 A 40.0 40.0 0 0 0 420.0 334.6410161513775 " stroke="black" fill="transparent" class="stroke"/><path d="M 360.0 300.0 L 360.0 340.0 " stroke="black" fill="transparent" class="stroke"/><path d="M 360.0 300.0 A 40.0 40.0 0 0 1 420.0 265.3589838486225 " stroke="black" fill="transparent" class="stroke"/><path d="M 400.0 300.0 L 440.0 300.0 " stroke="black" fill="transparent" class="stroke"/><path d="M 400.0 300.0 A 40.0 40.0 0 0 0 420.0 334.6410161513775 " stroke="black" fill="transparent" class="stroke"/><path d="M 400.0 300.0 A 40.0 40.0 0 0 1 420.0 265.3589838486225 " stroke="black" fill="transparent" class="stroke"/><path d="M 420.0 265.3589838486225 A 39.999999999999986 39.999999999999986 0 0 1 440.0 300.0 " stroke="black" fill="transparent" class="stroke"/><path d="M 420.0 265.3589838486225 A 39.999999999999986 39.999999999999986 0 0 1 460.0 265.3589838486225 " stroke="black" fill="transparent" class="stroke"/><path d="M 420.0 334.6410161513775 A 39.999999999999986 39.999999999999986 0 0 0 460.0 334.6410161513775 " stroke="black" fill="transparent" class="stroke"/><path d="M 420.0 334.6410161513775 A 39.999999999999986 39.999999999999986 0 0 0 440.0 300.0 " stroke="black" fill="transparent" class="stroke"/><path d="M 460.0 265.3589838486225 A 39.999999999999986 39.999999999999986 0 0 1 480.0 300.0 " stroke="black" fill="transparent" class="stroke"/><path d="M 460.0 334.6410161513775 A 39.999999999999986 39.999999999999986 0 0 0 480.0 300.0 " stroke="black" fill="transparent" class="stroke"/><path d="M 500.0 265.3589838486225 A 39.999999999999986 39.999999999999986 0 0 1 520.0 300.0 " stroke="black" fill="transparent" class="stroke"/><path d="M 500.0 265.3589838486225 A 39.999999999999986 39.999999999999986 0 0 0 500.0 334.6410161513775 " stroke="black" fill="transparent" class="stroke"/><path d="M 500.0 334.6410161513775 A 39.999999999999986 39.999999999999986 0 0 0 520.0 300.0 " stroke="black" fill="transparent" class="stroke"/><path d="M 520.0 300.0 A 40.0 40.0 0 0 0 540.0 334.6410161513775 " stroke="black" fill="transparent" class="stroke"/><path d="M 520.0 300.0 A 40.0 40.0 0 0 1 540.0 265.3589838486225 " stroke="black" fill="transparent" class="stroke"/><path d="M 540.0 265.3589838486225 A 39.999999999999986 39.999999999999986 0 0 1 560.0 300.0 " stroke="black" fill="transparent" class="stroke"/><path d="M 540.0 334.6410161513775 A 39.999999999999986 39.999999999999986 0 0 0 560.0 300.0 " stroke="black" fill="transparent" class="stroke"/><path d="M 560.0 300.0 L 640.0 300.0 " stroke="black" fill="transparent" class="stroke"/><path d="M 560.0 300.0 A 40.0 40.0 0 0 0 640.0 300.0 " stroke="black" fill="transparent" class="stroke"/><path d="M 560.0 300.0 A 40.0 40.0 0 0 1 640.0 300.0 " stroke="black" fill="transparent" class="stroke"/><path d="M 620.0 240.0 L 640.0 240.0 " stroke="black" fill="transparent" class="stroke"/><path d="M 640.0 220.0 L 640.0 240.0 " stroke="black" fill="transparent" class="stroke"/><path d="M 640.0 240.0 L 660.0 240.0 " stroke="black" fill="transparent" class="stroke"/><path d="M 640.0 240.0 L 640.0 300.0 " stroke="black" fill="transparent" class="stroke"/><path d="M 640.0 300.0 L 640.0 340.0 " stroke="black" fill="transparent" class="stroke"/><path d="M 640.0 300.0 A 40.0 40.0 0 0 1 720.0 300.0 " stroke="black" fill="transparent" class="stroke"/><path d="M 720.0 300.0 A 40.0 40.0 0 0 0 760.0 340.0 " stroke="black" fill="transparent" class="stroke"/><path d="M 760.0 340.0 A 40.0 40.0 0 0 1 800.0 380.0 " stroke="black" fill="transparent" class="stroke"/><path d="M 760.0 340.0 A 40.0 40.0 0 1 0 800.0 380.0 " stroke="black" fill="transparent" class="stroke"/><path d="M 760.0 340.0 A 40.0 40.0 0 0 0 800.0 300.0 " stroke="black" fill="transparent" class="stroke"/></g><g class="cycles"><path d="M 760.0 340.0 A 40.0 40.0 0 0 0 800.0 300.0 A 40.0 40.0 0 0 1 760.0 340.0 A 40.0 40.0 0 0 1 800.0 380.0 A 40.0 40.0 0 1 1 760.0 340.0 A 40.0 40.0 0 0 1 720.0 300.0 A 40.0 40.0 0 0 0 640.0 300.0 L 640.0 340.0 L 640.0 300.0 A 40.0 40.0 0 0 1 560.0 300.0 A 40.0 40.0 0 0 1 540.0 334.6410161513775 A 39.999999999999986 39.999999999999986 0 0 1 520.0 300.0 A 40.0 40.0 0 0 1 500.0 334.6410161513775 A 39.999999999999986 39.999999999999986 0 0 1 500.0 265.3589838486225 A 39.999999999999986 39.999999999999986 0 0 1 520.0 300.0 A 40.0 40.0 0 0 1 540.0 265.3589838486225 A 39.999999999999986 39.999999999999986 0 0 1 560.0 300.0 A 40.0 40.0 0 0 1 640.0 300.0 L 640.0 240.0 L 620.0 240.0 L 640.0 240.0 L 640.0 220.0 L 640.0 240.0 L 660.0 240.0 L 640.0 240.0 L 640.0 300.0 A 40.0 40.0 0 0 1 720.0 300.0 A 40.0 40.0 0 0 0 760.0 340.0 " stroke="black" fill="#ffffff"/><path d="M 480.0 300.0 A 40.0 40.0 0 0 1 460.0 334.6410161513775 A 39.999999999999986 39.999999999999986 0 0 1 420.0 334.6410161513775 A 39.999999999999986 39.999999999999986 0 0 1 360.0 300.0 L 360.0 340.0 L 360.0 300.0 A 40.0 40.0 0 0 1 340.0 334.6410161513775 L 340.0 340.0 L 340.0 334.6410161513775 A 39.999999999999986 39.999999999999986 0 0 1 300.0 334.6410161513775 A 39.999999999999986 39.999999999999986 0 0 1 260.0 334.6410161513775 A 39.999999999999986 39.999999999999986 0 0 1 220.0 334.6410161513775 L 220.0 340.0 L 220.0 334.6410161513775 A 39.999999999999986 39.999999999999986 0 1 1 220.0 265.3589838486225 L 220.0 220.0 L 220.0 265.3589838486225 A 39.999999999999986 39.999999999999986 0 0 1 260.0 265.3589838486225 A 39.999999999999986 39.999999999999986 0 0 1 300.0 265.3589838486225 A 39.999999999999986 39.999999999999986 0 0 1 340.0 265.3589838486225 L 340.0 220.0 L 340.0 265.3589838486225 A 39.999999999999986 39.999999999999986 0 0 1 360.0 300.0 L 360.0 220.0 L 360.0 300.0 A 40.0 40.0 0 0 1 420.0 265.3589838486225 A 39.999999999999986 39.999999999999986 0 0 1 460.0 265.3589838486225 A 39.999999999999986 39.999999999999986 0 0 1 480.0 300.0 " stroke="black" fill="#ffffff"/><path d="M 760.0 340.0 A 40.0 40.0 0 1 0 800.0 380.0 A 40.0 40.0 0 0 0 760.0 340.0 " stroke="black" fill="#ff0000"/><path d="M 460.0 334.6410161513775 A 39.999999999999986 39.999999999999986 0 0 0 480.0 300.0 A 40.0 40.0 0 0 0 460.0 265.3589838486225 A 39.999999999999986 39.999999999999986 0 0 0 420.0 265.3589838486225 A 39.999999999999986 39.999999999999986 0 0 1 440.0 300.0 A 40.0 40.0 0 0 1 420.0 334.6410161513775 A 39.999999999999986 39.999999999999986 0 0 0 460.0 334.6410161513775 " stroke="black" fill="#008000"/><path d="M 220.0 265.3589838486225 A 39.999999999999986 39.999999999999986 0 1 0 220.0 334.6410161513775 A 39.999999999999986 39.999999999999986 0 0 1 220.0 265.3589838486225 " stroke="black" fill="#0000ff"/><path d="M 560.0 300.0 A 40.0 40.0 0 0 0 640.0 300.0 L 560.0 300.0 " stroke="black" fill="#ffffff"/><path d="M 640.0 300.0 A 40.0 40.0 0 0 0 560.0 300.0 L 640.0 300.0 " stroke="black" fill="#ff0000"/><path d="M 300.0 334.6410161513775 A 39.999999999999986 39.999999999999986 0 0 1 300.0 265.3589838486225 A 39.999999999999986 39.999999999999986 0 0 0 260.0 265.3589838486225 A 39.999999999999986 39.999999999999986 0 0 1 280.0 300.0 A 40.0 40.0 0 0 1 260.0 334.6410161513775 A 39.999999999999986 39.999999999999986 0 0 0 300.0 334.6410161513775 " stroke="black" fill="#008000"/><path d="M 340.0 334.6410161513775 L 340.0 265.3589838486225 A 39.999999999999986 39.999999999999986 0 0 0 300.0 265.3589838486225 A 39.999999999999986 39.999999999999986 0 0 1 320.0 300.0 A 40.0 40.0 0 0 1 300.0 334.6410161513775 A 39.999999999999986 39.999999999999986 0 0 0 340.0 334.6410161513775 " stroke="black" fill="#0000ff"/><path d="M 260.0 334.6410161513775 A 39.999999999999986 39.999999999999986 0 0 1 260.0 265.3589838486225 A 39.999999999999986 39.999999999999986 0 0 0 220.0 265.3589838486225 A 39.999999999999986 39.999999999999986 0 0 1 240.0 300.0 A 40.0 40.0 0 0 1 220.0 334.6410161513775 A 39.999999999999986 39.999999999999986 0 0 0 260.0 334.6410161513775 " stroke="black" fill="#008000"/><path d="M 540.0 334.6410161513775 A 39.999999999999986 39.999999999999986 0 0 0 560.0 300.0 A 40.0 40.0 0 0 0 540.0 265.3589838486225 A 39.999999999999986 39.999999999999986 0 0 0 520.0 300.0 A 40.0 40.0 0 0 0 540.0 334.6410161513775 " stroke="black" fill="#0000ff"/><path d="M 300.0 334.6410161513775 A 39.999999999999986 39.999999999999986 0 0 0 320.0 300.0 A 40.0 40.0 0 0 0 300.0 265.3589838486225 A 39.999999999999986 39.999999999999986 0 0 0 300.0 334.6410161513775 " stroke="black" fill="#ffffff"/><path d="M 500.0 334.6410161513775 A 39.999999999999986 39.999999999999986 0 0 0 520.0 300.0 A 40.0 40.0 0 0 0 500.0 265.3589838486225 A 39.999999999999986 39.999999999999986 0 0 0 500.0 334.6410161513775 " stroke="black" fill="#0000ff"/><path d="M 260.0 334.6410161513775 A 39.999999999999986 39.999999999999986 0 0 0 280.0 300.0 A 40.0 40.0 0 0 0 260.0 265.3589838486225 A 39.999999999999986 39.999999999999986 0 0 0 260.0 334.6410161513775 " stroke="black" fill="#ffffff"/><path d="M 420.0 334.6410161513775 A 39.999999999999986 39.999999999999986 0 0 1 400.0 300.0 L 360.0 300.0 A 40.0 40.0 0 0 0 420.0 334.6410161513775 " stroke="black" fill="#ffffff"/><path d="M 400.0 300.0 A 40.0 40.0 0 0 1 420.0 265.3589838486225 A 39.999999999999986 39.999999999999986 0 0 0 360.0 300.0 L 400.0 300.0 " stroke="black" fill="#ff0000"/><path d="M 420.0 334.6410161513775 A 39.999999999999986 39.999999999999986 0 0 0 440.0 300.0 L 400.0 300.0 A 40.0 40.0 0 0 0 420.0 334.6410161513775 " stroke="black" fill="#ffffff"/><path d="M 340.0 334.6410161513775 A 39.999999999999986 39.999999999999986 0 0 0 360.0 300.0 A 40.0 40.0 0 0 0 340.0 265.3589838486225 L 340.0 334.6410161513775 " stroke="black" fill="#ffffff"/><path d="M 220.0 334.6410161513775 A 39.999999999999986 39.999999999999986 0 0 0 240.0 300.0 A 40.0 40.0 0 0 0 220.0 265.3589838486225 L 220.0 334.6410161513775 " stroke="black" fill="#ffffff"/><path d="M 440.0 300.0 A 40.0 40.0 0 0 0 420.0 265.3589838486225 A 39.999999999999986 39.999999999999986 0 0 0 400.0 300.0 L 440.0 300.0 " stroke="black" fill="#ff0000"/><path d="M 220.0 265.3589838486225 A 39.999999999999986 39.999999999999986 0 0 0 220.0 334.6410161513775 L 220.0 265.3589838486225 " stroke="black" fill="#ffffff"/></g><g/><g/><g class="selected"/></svg>